<svg xmlns="http://www.w3.org/2000/svg" width="31" height="31" fill="none"><circle cx="15.5" cy="15.5" r="15.5" fill="#D4212D"/><path d="M25.883 20.336a1.52 1.52 0 0 0-.074-.143c-.382-.688-1.111-1.532-2.188-2.532l-.023-.023-.011-.011-.012-.012h-.011c-.489-.465-.798-.779-.928-.94-.237-.305-.29-.614-.16-.927.091-.237.435-.737 1.03-1.5.314-.405.562-.73.745-.974 1.321-1.756 1.894-2.879 1.718-3.368l-.068-.114c-.046-.069-.164-.131-.355-.189-.191-.057-.436-.067-.733-.028l-3.3.022a.428.428 0 0 0-.228.006l-.15.035-.057.028-.045.035a.508.508 0 0 0-.126.12.786.786 0 0 0-.115.2 18.7 18.7 0 0 1-1.225 2.578c-.283.473-.542.883-.78 1.231a5.929 5.929 0 0 1-.595.767c-.16.165-.305.296-.435.395-.13.1-.23.142-.298.126a8.234 8.234 0 0 1-.195-.045.76.76 0 0 1-.257-.281 1.256 1.256 0 0 1-.132-.447 4.903 4.903 0 0 1-.04-.464 9.702 9.702 0 0 1 .005-.55c.008-.236.012-.397.012-.48 0-.29.006-.606.017-.946.012-.34.02-.609.029-.807.008-.199.011-.409.011-.63 0-.222-.013-.395-.04-.521a1.784 1.784 0 0 0-.12-.367.617.617 0 0 0-.235-.275 1.323 1.323 0 0 0-.383-.155c-.405-.091-.92-.14-1.547-.148-1.42-.016-2.333.076-2.738.275-.16.084-.305.198-.435.343-.137.168-.156.26-.057.275.458.069.783.233.973.492l.07.138c.053.1.106.275.16.527.053.252.088.53.103.836a8.919 8.919 0 0 1 0 1.432c-.039.397-.075.706-.11.928-.034.221-.085.4-.154.538a2.284 2.284 0 0 1-.137.252.199.199 0 0 1-.058.057.859.859 0 0 1-.309.058c-.107 0-.237-.054-.39-.16a2.748 2.748 0 0 1-.475-.442 5.89 5.89 0 0 1-.555-.784c-.206-.336-.42-.734-.642-1.192l-.183-.332a28.583 28.583 0 0 1-.47-.934 17.998 17.998 0 0 1-.526-1.185.755.755 0 0 0-.275-.367l-.058-.034a.784.784 0 0 0-.183-.097 1.216 1.216 0 0 0-.263-.075l-3.139.023c-.32 0-.538.073-.653.218l-.046.068a.37.37 0 0 0-.034.184c0 .084.023.187.069.309a37.81 37.81 0 0 0 1.495 3.116c.538 1 1.006 1.806 1.403 2.416.397.611.801 1.188 1.214 1.73.412.542.685.89.819 1.042.133.153.238.267.315.344l.286.275c.184.183.453.403.808.658.355.256.748.508 1.18.757.431.248.933.45 1.506.607.573.156 1.13.219 1.672.189h1.318c.267-.023.47-.107.607-.252l.045-.058a.762.762 0 0 0 .086-.212c.027-.095.04-.2.04-.314a3.777 3.777 0 0 1 .075-.888c.057-.263.122-.462.194-.596a1.467 1.467 0 0 1 .442-.504.746.746 0 0 1 .091-.04c.183-.06.399-.002.647.178.249.18.481.401.7.664.217.264.478.56.784.888.305.328.573.572.802.733l.229.138c.152.091.351.175.595.252.244.076.458.095.642.057l2.932-.046c.29 0 .516-.048.676-.143.16-.096.255-.2.286-.315a.886.886 0 0 0 .006-.39 1.439 1.439 0 0 0-.08-.303z" fill="#fff"/></svg>
